<svg width="117" height="119" viewBox="0 0 117 119" fill="none" xmlns="http://www.w3.org/2000/svg">
<path d="M56.4118 110.903C56.3453 110.903 56.301 110.926 56.301 110.993C55.1038 111.71 55.2589 113.3 55.1924 114.577C55.1702 115.339 55.9018 115.764 56.434 116.212C56.7666 116.235 57.21 116.391 57.4317 116.011C57.6313 114.599 57.8752 112.987 57.4538 111.598C57.1656 111.284 56.8775 110.881 56.4118 110.903ZM60.5357 110.657C60.2696 110.679 60.0479 110.859 59.8927 111.083C59.3384 111.956 59.0724 113.054 59.1389 114.107C59.2497 114.711 59.1167 115.518 59.7597 115.854C60.2918 116.235 61.0678 116.145 61.5999 115.809C62.7528 115.025 62.3981 113.502 62.2206 112.315L61.8216 111.687C61.489 111.262 61.09 110.724 60.5357 110.657ZM64.3269 110.478C64.0387 110.657 63.9943 111.038 63.7726 111.307C63.7061 112.718 62.8415 114.308 63.8392 115.54C64.194 115.697 64.5486 116.011 64.992 115.876C65.4355 115.63 65.6129 115.115 65.6794 114.644C65.768 113.345 65.3912 112.225 65.1473 111.06C64.9699 110.724 64.6817 110.478 64.3269 110.478ZM53.1084 110.03C52.5541 110.321 52.0663 110.903 51.8446 111.463C51.6893 112.852 51.2459 114.667 52.288 115.809C52.6427 116.033 53.0196 115.787 53.3301 115.585C54.2612 114.219 54.0173 112.27 53.9952 110.612L53.9064 110.411C53.7291 110.142 53.4187 110.03 53.1084 110.03ZM68.3843 108.26C67.8522 109 67.1871 109.694 67.1871 110.679C66.7879 111.575 66.9432 112.852 66.9874 113.815L67.0318 113.972C67.2757 114.241 67.2757 114.667 67.5639 114.868C67.6526 114.935 67.7856 114.913 67.8743 114.846C68.8277 113.076 68.7169 110.926 68.7833 108.82L68.6947 108.484C68.6503 108.372 68.5394 108.216 68.3843 108.26ZM48.6076 109.156C48.5189 109.761 48.4967 110.343 48.5411 110.971C48.6519 112.404 48.9401 113.771 49.4501 115.047C49.5831 115.159 49.7383 115.271 49.9378 115.204C50.5808 113.927 50.5808 112.404 50.2926 110.948C50.0044 109.985 50.0709 108.865 49.3171 108.081C48.8293 108.216 48.8515 108.798 48.6076 109.156ZM71.2222 106.379C70.9782 106.334 70.8453 106.648 70.7345 106.827C70.3131 108.35 69.382 110.097 70.1802 111.71C70.8009 111.643 70.9118 110.926 71.333 110.567C72.0425 109.425 71.4439 107.969 71.4217 106.715C71.3552 106.603 71.3552 106.446 71.2222 106.379ZM46.3682 102.705C46.1244 102.705 45.947 102.84 45.7697 102.974C45.6366 103.265 45.7697 103.579 45.8583 103.848C46.6343 105.236 45.038 106.155 44.8828 107.409C45.0602 108.574 44.4837 109.918 45.1267 110.993C45.3263 111.307 45.7253 111.419 46.0801 111.351C46.2353 111.239 46.457 111.172 46.5235 110.971C46.7896 109.134 46.3018 107.409 46.2796 105.595C46.324 105.55 46.3462 105.46 46.4126 105.46C46.9225 106.132 47.0556 106.939 47.3881 107.678C47.4325 107.812 47.5877 107.723 47.6764 107.723C47.7429 106.513 47.5877 105.304 47.2551 104.206C47.0113 103.915 46.9225 103.557 46.7896 103.221C46.7008 103.041 46.59 102.795 46.3682 102.705ZM42.9983 102.033C42.7544 103.31 42.7988 104.811 43.2643 105.976C43.4195 106.267 43.486 106.715 43.8629 106.737L43.9516 106.267C44.0847 105.035 44.129 103.624 43.8186 102.414C43.6634 102.145 43.3309 101.921 42.9983 102.033ZM72.7963 102.011C72.6411 102.997 72.5302 104.049 72.3751 105.057C72.4416 105.147 72.486 105.371 72.6633 105.281C73.018 104.116 73.794 103.109 74.171 101.944L74.0379 101.765C73.6388 101.496 73.1289 101.72 72.7963 102.011ZM60.0035 95.5599C58.3851 97.5983 58.119 100.555 58.7841 103.109C58.9393 103.579 59.1833 104.161 59.6931 104.296L61.9546 102.929L62.0877 102.369C60.8239 100.689 60.713 98.5167 60.5578 96.3663C60.6908 96.0079 60.713 95.5823 60.713 95.1792C60.4249 95.1792 60.2474 95.4255 60.0035 95.5599ZM55.7689 94.8432C55.6581 94.7983 55.5028 94.7983 55.4363 94.9103C55.148 97.1054 54.8155 99.3006 54.3943 101.429L55.791 103.848C55.9684 104.184 56.2566 104.542 56.6778 104.497C57.6091 103.041 57.6755 101.16 57.4982 99.3902C57.2987 98.0687 56.9661 96.8143 56.434 95.6272C56.2788 95.3359 56.0571 94.9999 55.7689 94.8432ZM34.1741 94.2832C34.0412 94.3728 33.8859 94.3503 33.7972 94.5072C33.4203 95.9632 34.0412 97.3967 35.0831 98.4271C35.3714 98.5838 35.6374 99.2111 36.0366 98.8751C35.1275 97.5983 34.1963 96.2094 34.4402 94.5519C34.4846 94.3279 34.3071 94.3055 34.1741 94.2832ZM36.5686 94.1712C36.3247 94.2832 36.1695 94.5295 36.0808 94.7759C36.0808 95.9183 36.6129 96.9039 37.1672 97.8447C37.2781 98.0014 37.4111 98.1807 37.5663 98.2478C37.6328 98.0911 37.6772 97.8894 37.6328 97.7103C37.3446 97.3967 37.1672 96.9934 37.1229 96.5679C37.0563 95.8287 37.1672 95.0223 36.9012 94.3279C36.8346 94.2383 36.7238 94.1264 36.5686 94.1712ZM31.3584 93.7008C31.1367 93.544 30.8928 93.7232 30.6933 93.8128C29.9616 94.6192 30.5158 95.7839 30.7598 96.6574C31.2698 97.5311 31.9792 98.6958 33.1099 98.8078V98.6511C32.8438 98.3151 32.6221 97.9567 32.4226 97.5983C31.8461 96.6574 31.7575 95.4927 31.6244 94.3728C31.5579 94.1264 31.5135 93.9024 31.3584 93.7008ZM83.5937 92.3792C83.3941 92.3792 83.1946 92.5136 83.1281 92.6928C82.3964 94.6863 81.7979 96.7247 81.5761 98.9198C81.5983 99.0991 81.4653 99.3454 81.6426 99.5022C81.8865 99.4351 82.1526 99.3006 82.3521 99.0766C83.4829 97.1503 83.7933 94.8879 83.7933 92.5584C83.7267 92.4688 83.6824 92.424 83.5937 92.3792ZM84.924 92.0656C84.8132 93.5664 84.5027 95.0895 84.3253 96.5903C84.3918 97.0159 84.015 97.5534 84.5027 97.7998C84.6135 97.8447 84.7023 97.7551 84.791 97.6654C85.5669 95.7839 85.966 93.5664 85.7887 91.416C85.3674 91.3936 85.1013 91.752 84.924 92.0656ZM39.2514 91.416C38.9631 91.6848 38.5197 92.0433 38.5862 92.536L38.8966 92.76C39.0739 92.8495 39.34 92.8495 39.4952 92.7152C39.7169 92.424 39.6948 91.976 39.6282 91.6176C39.5839 91.4609 39.4065 91.3936 39.2514 91.416ZM37.4998 91.192C37.3889 91.1473 37.3224 91.2593 37.2338 91.304C36.7682 91.1473 36.7238 91.752 36.3691 91.8864C36.3912 92.1328 36.48 92.3344 36.5686 92.5136C36.8346 92.7152 37.2116 92.6928 37.4777 92.536C37.3446 92.1328 37.7215 91.8193 37.7437 91.3936C37.7437 91.2593 37.6106 91.1473 37.4998 91.2144V91.192ZM34.5954 90.7216C34.1741 90.9456 34.019 91.416 34.019 91.8416C34.0632 91.9536 34.1741 92.0656 34.2849 92.1104C34.6397 92.2224 34.9723 92.088 35.2606 91.8864C35.4157 91.752 35.5487 91.5729 35.5044 91.3489C35.3492 91.0129 35.0167 90.6769 34.5954 90.7216ZM31.8018 89.9601C31.4915 90.1169 31.1589 90.3409 31.0923 90.6993C31.181 90.9456 31.2254 91.2369 31.4915 91.3713C31.957 91.5504 32.3783 91.2144 32.733 90.9009C32.7109 90.6769 32.7995 90.3856 32.6221 90.2065C32.3783 90.0496 32.1122 89.9376 31.8018 89.9601ZM20.7384 68.4119C21.6918 72.4438 23.5319 77.058 21.847 81.2691C21.1597 83.9122 22.8447 86.1297 24.6405 87.8321C25.9708 88.7057 27.5227 89.7585 29.1856 89.1313C27.1237 88.8401 25.2392 87.6081 23.9754 85.8162C22.0021 83.4867 22.8447 79.9476 22.9556 77.0804C23.1994 73.9445 22.246 70.943 20.7384 68.4119ZM67.7634 15.2134C69.2933 15.5046 70.8231 15.7734 72.3529 16.0646C72.4638 16.087 72.5524 16.199 72.5968 16.2886L63.3071 20.4549C61.0456 21.5076 58.7398 22.5828 56.5005 23.7475C60.1588 24.3523 63.7505 25.1812 67.4974 25.4275L67.6083 25.5171C67.6305 25.5395 67.6305 25.6067 67.6083 25.6067L58.9615 30.0418L49.7605 35.3504C49.0067 35.8209 48.275 36.3584 47.5656 36.8511C49.3171 36.672 50.9577 36.4704 52.7758 36.3584L59.8262 35.888L59.937 35.9104C60.1366 36.0224 59.8927 36.112 59.8484 36.224L45.7919 46.5725L41.158 50.246C45.0602 50.1564 48.8736 49.5068 52.687 49.2381C52.7758 49.2156 52.7536 49.3276 52.7758 49.3725L51.1572 50.8507L45.6144 55.577C43.7521 57.1898 42.0449 58.7129 40.382 60.5273L45.0824 60.1465C46.3018 60.0122 47.499 59.7882 48.7406 59.8105C48.7628 59.8329 48.8071 59.8553 48.785 59.9002L45.0159 66.4856L44.0625 68.1431C43.996 68.1879 44.0625 68.3222 43.996 68.2999C42.3996 71.0326 40.9585 73.8325 40.0274 76.8564C43.6412 75.2213 47.2995 73.6981 51.113 72.5334L47.7429 70.831L47.6764 70.7414L47.7207 70.6966L58.6732 65.9032L59.3163 65.5223C57.343 64.9848 55.2367 64.7608 53.2413 64.2456L53.197 64.1784L53.5074 63.9544C54.6604 63.4392 55.791 62.8121 56.9217 62.2521L66.6106 57.369C68.1404 56.6746 69.5815 55.7563 71.067 54.905H66.9874L58.2964 54.9275L58.1855 54.905C58.1855 54.8826 58.1855 54.8379 58.2298 54.8379L65.0142 50.6267C68.9164 48.2525 72.7519 45.8109 76.4324 43.0334H76.3881L64.8812 43.4814L61.5112 43.459C64.1052 41.5327 66.8766 39.8975 69.5593 38.1279L78.8712 31.7217V31.6546L77.3414 31.4753L69.9363 30.781L67.2313 30.4002C66.9874 30.3553 66.7657 30.2433 66.5884 30.109L76.3215 22.1572L78.9821 19.6709C76.3659 20.0293 73.9493 20.858 71.4217 21.4404L71.3108 21.306C73.2176 17.9461 74.9026 14.4742 76.5876 11.0247C73.5501 12.1671 70.5792 13.5782 67.7634 15.2134ZM78.5386 10.9799C77.0532 13.6231 75.6342 16.3334 74.4148 19.0661C77.4745 18.6629 80.3123 17.8341 83.3498 17.431L83.372 17.4534C81.9087 19.2453 79.9576 20.634 78.2727 22.202L70.2688 29.213C74.6144 29.8178 79.0929 29.9073 83.4385 30.1762C83.4829 30.2433 83.5937 30.2882 83.6158 30.3777C82.729 31.0273 81.8421 31.7441 80.9332 32.349L69.8032 39.7407L67.2092 41.6223C72.0203 41.7118 76.8093 41.219 81.5318 41.3759C81.5761 41.3983 81.6648 41.4654 81.6648 41.5327L80.534 42.339L71.2887 48.4765L68.739 50.0892L63.5731 53.3371C63.9279 53.3371 64.3713 53.3371 64.7703 53.2924L74.1931 53.5387L76.5876 53.5835C76.6319 53.6507 76.765 53.5387 76.7428 53.6731C72.9294 55.8906 69.005 57.817 65.0808 59.6985L59.9592 62.2968C59.2275 62.7001 58.4959 63.0808 57.8308 63.5961C60.0257 64.0216 62.1542 64.6263 64.3491 65.0296L64.6595 65.2312C64.6817 65.2983 64.6152 65.2983 64.593 65.3432L55.392 68.7702L51.113 70.5846L51.0242 70.6519L55.8354 72.9365L55.924 73.0038C54.6382 73.3621 53.2857 73.6534 52.0663 74.0341V74.0118C48.1199 75.0869 44.3286 76.4533 40.7368 78.3348C48.1641 82.7698 57.8973 84.1138 66.7436 82.2098C69.781 81.4707 72.8185 80.6867 75.5899 79.2308C83.4163 75.3557 90.2672 67.7847 93.7037 59.8553C96.4751 53.8299 97.2511 46.6173 96.6082 39.7183C95.5218 28.0034 88.5379 17.2517 78.5386 10.9799ZM82.3299 7.14961C85.9882 9.68075 89.3361 12.8167 92.1517 16.2214C100.111 25.9203 103.171 38.6208 101.397 51.4331C101.02 54.3226 100.133 57.033 99.1357 59.6538C97.096 65.1192 94.5019 70.383 94.1471 76.498C93.8811 79.5219 94.6127 82.6578 93.5264 85.3682C92.44 87.7425 89.9125 88.9969 87.5845 89.4896C87.1854 92.7152 87.0303 96.0975 85.5891 98.8974C83.7046 102.571 79.226 102.437 75.5899 102.145C74.8361 104.497 73.0402 106.513 73.3284 109.224C73.5059 111.307 71.71 112.807 70.158 113.86C69.9141 114.465 69.5371 115.047 69.3154 115.675C80.8888 113.435 91.6196 107.656 99.7565 98.5614C104.169 93.7008 107.672 88.3921 110.266 82.6131C111.596 79.6339 112.638 76.5877 113.392 73.3398C115.919 62.0057 115.476 48.8348 111.219 38.3744C109.246 33.6481 106.984 29.0562 103.792 24.8675C98.1601 17.431 90.5333 10.8231 82.3299 7.14961ZM35.9478 6.50005C34.4624 7.21682 32.9769 7.95601 31.4915 8.67278C23.5985 12.8838 16.149 19.85 11.1383 27.4658C7.50221 32.8193 5.04118 38.6208 3.42273 44.8029C2.1146 49.7756 1.56032 55.129 1.75989 60.5049C2.29198 75.1317 7.45788 88.3697 17.701 98.8751C18.0557 99.2558 18.5213 99.6814 18.8317 100.017C22.8447 103.96 27.3232 107.297 32.09 109.94C37.1229 112.651 42.5105 114.734 48.2085 115.607C47.8538 114.801 47.5656 113.995 47.1221 113.255C45.9692 113.188 44.7498 113.188 43.7521 112.628C42.7322 111.934 43.1313 110.478 43.1313 109.403C41.9562 106.804 41.2024 104.072 40.2712 101.384C39.0739 101.249 37.8767 101.205 36.6795 101.16C35.194 101.07 33.642 100.891 32.2895 100.465C31.5135 100.152 30.6933 99.7486 30.006 99.1662C27.7002 97.3071 26.7247 94.2832 27.4563 91.3936C26.525 91.0353 25.6382 90.6096 24.7735 90.0496C23.2216 89.0641 21.9135 87.6754 20.8936 86.1297C18.8095 83.2178 20.4945 79.1859 19.8516 75.8037C17.1467 66.3063 15.0182 56.4954 15.0848 45.9901C14.9739 39.1135 16.282 32.7969 18.6765 26.9283C22.0243 18.7973 28.2766 11.2935 35.9478 6.50005ZM63.817 5.62644C57.6977 4.79768 51.2459 5.40245 45.7919 7.4856C37.6106 10.2407 30.2277 16.8261 25.6604 24.4643C22.0021 30.4002 20.295 37.2991 20.3615 44.6013C20.4502 57.817 27.1237 69.7335 38.0762 76.9684C39.0961 74.6165 40.1603 72.287 41.3797 70.0022L45.7919 61.7369C44.4837 61.7817 43.2422 61.8713 41.934 61.9608C39.9165 62.1177 37.9654 62.4984 35.9257 62.4984C37.256 61.1321 38.6305 59.8329 40.116 58.4442L46.7008 52.6875L48.3858 51.1867C46.8339 51.3436 45.2597 51.5004 43.6856 51.5676L36.9012 51.8811L36.6795 51.7467L47.499 43.5709L47.4768 43.5262L47.5877 43.4814C50.1373 41.555 52.6649 39.6735 55.1702 37.7248L44.1955 38.9119C43.4417 38.9568 42.5991 39.0015 41.8453 39.0015C41.9119 38.8671 42.0449 38.7999 42.1336 38.6879C43.7521 37.3888 45.548 36.3808 47.2108 35.2384L47.233 35.2609L52.7979 31.789L57.3874 29.2354L62.3537 26.4579L62.4423 26.4131C62.3094 26.4131 62.1542 26.3234 62.0211 26.3683C60.713 26.0994 59.3384 25.9203 57.986 25.6963C55.9906 25.2259 53.8622 25.0243 51.8668 24.5092L51.8002 24.4643C53.1526 23.5235 54.6824 22.9188 56.1236 22.1348L66.9654 17.2741C67.2757 17.1397 67.5639 16.9605 67.8078 16.759C66.4332 16.5126 65.0364 16.2661 63.684 15.9526L63.44 15.751C64.4821 15.1238 65.5242 14.6086 66.5884 14.0262L73.2398 10.7336L75.8116 9.47918V9.36718C72.0868 7.44081 68.096 6.20885 63.817 5.62644ZM52.7758 1.77376C52.7758 1.79618 52.7979 1.81855 52.7758 1.84097L52.7314 1.77376C50.5808 2.08739 48.4745 2.55774 46.457 3.16251C43.6856 3.96891 41.1137 5.24566 38.564 6.58963C29.762 11.4727 22.4678 20.1636 19.0977 29.3698C16.1712 37.0304 15.8608 46.4157 17.2131 54.6811C17.6123 57.6378 18.5878 60.3705 19.7185 63.0361L22.6673 69.4871L23.4433 71.3686C24.1971 72.8245 24.5075 74.5493 24.3301 76.2964C24.2193 78.4916 23.6207 80.7316 24.1084 82.8595C24.7513 85.1442 26.6359 87.7201 29.1635 88.0337C27.1902 85.8386 24.7071 83.6882 24.3967 80.7092C24.2193 79.5443 24.7071 78.5812 24.9066 77.5508C25.4609 75.0197 25.8821 72.063 24.8401 69.6215C23.3102 66.9783 21.5144 64.4248 20.4059 61.6249C19.4524 58.9594 18.4326 56.3163 18.3661 53.3147C18.3661 53.2699 18.3661 53.2027 18.4105 53.2027C19.6299 56.8763 20.5167 60.6617 22.6451 63.9544C24.2858 67.292 27.678 69.9799 27.5227 74.0118C27.6336 75.0869 27.301 76.05 26.9464 76.946C26.4142 78.0437 25.8821 79.2532 26.0595 80.5972C26.4364 82.3443 28.0327 83.7555 29.7178 84.0915C28.5204 82.6355 26.6359 81.2243 26.9685 79.0516C27.7002 76.7444 29.1635 74.2805 28.1879 71.6821C27.8997 70.7639 27.3454 69.9575 27.3232 68.9495C26.7911 68.1879 26.2147 67.4487 25.7048 66.6871C22.5121 61.8488 20.5167 56.4954 19.519 50.7387C18.3439 43.459 19.0534 35.7984 21.6918 29.3922C25.5495 18.7749 35.5487 9.56875 46.0136 5.91764C54.0839 2.96094 63.9722 3.22972 71.9317 6.20885C83.1946 10.1735 92.9721 20.41 96.4308 31.9233C99.3131 41.4654 98.7144 53.2251 94.2802 61.9161C92.5065 65.9032 89.8017 69.6215 86.6089 72.847C80.5119 78.7828 73.395 82.6578 65.3025 83.9571C63.817 84.1811 62.265 84.2258 60.8461 84.6515C59.5601 85.2786 58.895 86.6226 58.6512 87.9441C58.5624 88.2577 58.6512 88.6609 58.4295 88.9297C58.2742 89.0193 58.1633 88.8849 58.0969 88.7953C58.0081 88.0337 57.8752 87.2497 57.5869 86.533C56.7887 84.2035 54.1503 84.4051 52.1993 83.9571C43.1091 82.2995 34.8171 77.7524 28.5204 70.2262V70.383C28.8974 71.4134 29.2964 72.4438 29.4517 73.5638C29.7842 75.5797 28.7643 77.1924 28.7643 79.1188C29.4517 81.1347 31.2032 82.8147 32.9547 84.0242C35.194 85.6594 38.054 84.2931 40.6259 84.6738C46.0357 84.4722 50.5808 86.7794 54.9041 89.4673C55.8132 90.4305 55.1702 91.7968 54.8599 92.8272L55.0372 94.3279C54.749 94.7312 54.2612 94.7983 53.7956 94.7535C53.2192 94.3728 53.8844 93.8352 53.84 93.3424C53.2857 92.4464 53.7513 91.1024 52.9531 90.3185C52.2215 90.7664 51.4898 91.1473 50.6473 91.3264L42.0671 91.4609L41.7345 91.6176C41.3354 91.864 41.0915 92.2673 41.0694 92.6704C41.1802 93.1855 41.7345 93.1632 42.0449 93.432C41.8453 93.5664 41.6236 93.8128 41.3576 93.7008C40.4042 93.3872 39.5396 93.9919 38.9631 94.7312C38.3423 95.6719 38.6083 97.0383 39.1183 97.9567C39.9165 99.0542 41.1137 99.995 42.5327 99.6814C43.0869 100.241 43.6412 100.645 44.262 101.048C45.3705 102.056 46.9669 101.697 48.3416 101.697L48.5854 101.944C48.5854 104.34 49.6053 106.401 50.3148 108.552C50.603 108.955 50.6916 109.627 51.2459 109.739C51.9998 109.448 52.6427 108.798 53.4852 108.619C54.3499 108.417 55.0372 109 55.6137 109.604C56.1236 109.582 56.6114 109.268 57.1435 109.425C57.6755 109.895 57.9638 110.523 58.5181 110.971C59.2719 110.478 59.8706 109.851 60.713 109.649C61.5999 109.515 61.9768 110.478 62.7084 110.769C63.3958 110.545 63.6175 109.828 64.2826 109.448C64.6595 109.112 65.1251 109.448 65.502 109.582C66.8766 108.641 68.1182 107.432 68.8277 105.931C69.382 105.976 69.2489 106.625 69.515 106.961C70.3131 106.961 70.1358 106.043 70.4462 105.572C70.557 105.371 70.7787 105.281 70.934 105.236C70.9562 104.43 70.9562 103.445 70.5348 102.75L67.2092 102.728C67.1427 102.661 67.0096 102.638 67.054 102.549C68.7391 101.832 70.3131 100.846 71.9317 99.9278C72.6411 99.3902 73.5059 99.9053 74.3039 99.883L74.3483 99.8606C74.9026 99.9726 75.5013 99.995 76.0555 99.995C77.7184 100.062 79.5807 99.659 80.3345 98.0238C80.9332 96.2543 81.3322 94.4623 81.3322 92.4912C80.7558 91.7968 79.8467 91.7073 79.1595 91.192C79.1151 91.1249 79.1595 91.0576 79.2038 90.9904C80.8666 90.3633 82.7069 90.1393 84.4584 89.6689C84.6357 89.5569 84.8352 89.4225 84.8352 89.1761C84.7244 89.1313 84.6357 89.0641 84.5249 89.0641L73.0624 90.3856C72.9737 90.3856 72.9516 90.5649 72.9294 90.408L70.4019 90.6993L70.3797 90.744L70.3575 90.6993C68.4951 90.7889 66.5219 90.856 64.6152 90.9456L63.7061 90.856C63.4844 90.856 63.2849 90.6993 63.0854 90.6993V90.6545C62.9302 90.5649 62.7749 90.4305 62.642 90.2736C62.5311 89.9376 62.3759 89.5121 62.5532 89.1537C63.5066 87.4737 65.2359 86.2866 66.921 85.4802C69.7588 84.4051 72.9294 83.7555 76.0776 84.0242C78.3391 84.1362 80.2901 85.1218 82.3743 85.7266C83.6824 86.1522 85.2566 85.9282 86.2543 85.0098C88.8482 83.2851 88.5379 80.0596 88.804 77.2373C89.1365 74.0789 91.0876 71.5926 92.4843 68.9046C92.7282 68.4791 92.8834 68.0087 93.1052 67.628C92.8391 69.5542 91.7305 71.1222 90.9767 72.847C89.3361 76.1844 91.154 80.7539 88.9813 83.9122C88.6487 84.6738 87.4737 84.741 87.518 85.6817C88.3605 85.4578 89.1365 84.9202 89.7573 84.2931C92.3956 81.5603 89.2474 77.1924 91.5532 74.3253C90.9545 76.7668 91.9966 79.0964 91.8635 81.5156C91.7749 83.8002 89.9568 85.6146 88.1831 86.9137V87.0034C88.4935 87.0706 88.804 87.0034 89.1143 86.9137C90.0234 86.4882 91.0432 86.0402 91.5754 85.077C92.2405 83.9795 92.4843 82.6803 92.5065 81.3363C91.4866 72.8918 95.4996 65.7912 98.1823 58.4889C101.331 49.8205 101.198 39.3375 98.4927 30.4673C95.9652 22.762 90.8658 15.6837 84.3697 10.3752C80.6449 7.32881 76.5654 5.08888 72.2199 3.56571C66.3002 1.43777 59.3828 0.810578 52.7758 1.77376ZM71.1335 1.39298C76.2107 2.58016 81.0883 4.39448 85.7 6.76883C87.8949 8.15758 90.2672 9.38955 92.3514 11.0471C109.844 23.9715 118.935 44.6686 116.252 66.7543C115.299 75.4453 112.461 83.3971 107.96 90.6096V90.6769H107.915C102.018 100.264 92.7282 108.91 82.6625 113.278C81.7979 113.703 80.9332 114.062 80.0684 114.443V114.51L80.0463 114.465C72.7299 117.444 64.3935 118.631 56.0349 118.34C55.4141 118.228 54.7712 118.295 54.1282 118.206C50.6916 117.937 47.3881 117.399 44.1733 116.548C39.8499 115.428 35.6596 113.995 31.7796 111.822C27.2346 109.38 22.9776 106.267 18.9868 102.571L18.9426 102.593C18.2774 101.854 17.3906 101.07 16.6589 100.264C15.3952 98.9646 14.1758 97.5983 13.045 96.2094L13.0228 96.2543C13.045 96.1647 12.8898 96.0079 12.8233 95.9407C8.94333 91.08 5.81717 85.8834 3.82177 80.2163C2.1146 75.6917 0.939515 70.943 0.385235 65.948C-0.568081 57.369 0.230048 48.3868 2.97931 40.6143C4.61995 35.7312 6.81488 31.0721 9.56408 26.6818C11.6261 23.7924 13.7101 21.0149 16.2154 18.4613C28.2101 5.89528 43.7521 -0.466174 61.0456 0.0266008C64.5265 0.205807 67.8522 0.653794 71.1335 1.39298Z" fill="#FFF5E6"/>
</svg>
